<?xml version="1.0" standalone="no"?>
<!DOCTYPE svg PUBLIC "-//W3C//DTD SVG 20010904//EN"
 "http://www.w3.org/TR/2001/REC-SVG-20010904/DTD/svg10.dtd">
<svg version="1.0" xmlns="http://www.w3.org/2000/svg"
 width="2816.000000pt" height="1536.000000pt" viewBox="0 0 2816.000000 1536.000000"
 preserveAspectRatio="xMidYMid meet">

<g transform="translate(0.000000,1536.000000) scale(0.100000,-0.100000)"
fill="#000000" stroke="none">
<path d="M11585 12293 c-360 -47 -690 -212 -935 -469 -258 -270 -440 -666
-519 -1124 -59 -345 -61 -421 -61 -2310 0 -1078 -4 -1785 -10 -1885 -41 -625
-138 -1061 -320 -1443 -100 -207 -217 -394 -421 -672 -80 -109 -142 -228 -164
-315 -30 -117 -10 -297 43 -402 99 -192 304 -330 582 -390 133 -28 497 -25
640 5 222 48 437 136 600 245 223 148 451 389 603 635 250 405 428 991 488
1612 14 148 16 605 3 775 -8 115 -9 107 -15 -185 -9 -419 -42 -658 -149 -1075
-99 -388 -253 -740 -436 -996 -76 -106 -268 -306 -364 -379 -345 -261 -842
-396 -1240 -335 -106 16 -159 32 -210 65 -19 12 -26 19 -15 15 215 -83 533
-66 877 46 114 37 327 140 428 207 530 352 865 1097 996 2222 15 125 18 308
24 1340 5 1093 8 1200 23 1254 28 94 52 141 99 192 53 57 107 83 174 84 119 0
207 -63 312 -225 94 -144 343 -544 489 -784 192 -316 231 -378 305 -488 273
-403 703 -515 1072 -276 90 58 198 166 263 263 28 41 123 194 213 340 596 969
633 1026 707 1084 159 125 345 89 433 -84 50 -98 50 -89 50 -1240 0 -605 5
-1138 10 -1220 49 -708 225 -1403 462 -1825 290 -514 666 -787 1255 -912 111
-23 152 -27 303 -27 158 -1 180 1 229 21 66 27 82 21 19 -7 -178 -79 -497 -79
-800 -1 -298 77 -544 217 -758 431 -334 333 -550 778 -695 1430 -70 318 -103
578 -114 895 l-6 200 -8 -190 c-28 -721 110 -1450 379 -2002 68 -138 214 -367
310 -484 77 -94 251 -259 354 -336 168 -124 406 -228 640 -280 93 -20 152 -26
307 -30 222 -6 335 8 495 61 365 122 567 444 478 764 -30 108 -75 189 -198
358 -276 379 -391 586 -491 881 -106 316 -164 611 -208 1063 -15 155 -18 398
-24 2080 -4 1048 -10 1925 -14 1950 -3 25 -13 95 -21 155 -47 339 -122 586
-255 844 -169 330 -395 561 -701 716 -231 117 -414 160 -678 159 -189 -1 -304
-18 -460 -70 -195 -65 -415 -201 -559 -346 -225 -225 -345 -434 -701 -1217
-324 -716 -418 -894 -530 -1013 -66 -69 -91 -74 -146 -25 -99 86 -229 325
-483 890 -374 829 -487 1041 -679 1270 -202 240 -492 418 -787 481 -149 32
-367 45 -490 29z m4986 -558 c157 -27 319 -99 470 -208 81 -58 178 -137 168
-137 -15 1 -116 59 -111 64 3 4 -1 4 -10 1 -9 -4 -19 -2 -22 4 -4 6 -13 8 -21
4 -11 -4 -13 -1 -9 11 4 11 1 16 -10 16 -9 0 -16 -4 -16 -10 0 -5 -5 -10 -11
-10 -8 0 -9 4 0 13 15 19 3 29 -20 16 -15 -7 -19 -6 -19 6 0 13 -4 14 -20 5
-11 -6 -20 -7 -19 -3 3 20 -2 25 -15 13 -8 -6 -34 -13 -58 -15 -52 -3 -71 -8
-78 -17 -3 -4 -58 -21 -122 -37 -64 -16 -135 -38 -159 -48 -51 -23 -121 -20
-141 6 -12 14 -11 15 5 2 11 -9 17 -10 17 -2 0 6 -3 11 -7 12 -35 3 -80 9 -90
10 -7 1 -13 9 -13 18 0 13 -2 13 -9 2 -5 -8 -14 -10 -21 -6 -9 5 -11 4 -6 -3
5 -8 0 -11 -16 -8 -13 2 -29 -1 -35 -6 -9 -7 -13 -7 -13 1 0 7 -4 10 -9 7 -4
-3 -21 6 -37 19 -37 32 -54 32 -54 1 0 -14 -4 -28 -10 -31 -5 -3 -10 1 -10 10
0 9 -4 14 -8 11 -4 -2 -14 -1 -22 4 -9 5 -20 5 -28 -2 -9 -8 -16 -8 -24 0 -7
7 -10 12 -7 13 36 6 54 11 58 16 3 3 -11 3 -32 0 -25 -4 -35 -2 -31 5 5 7 1 7
-11 0 -10 -5 -30 -7 -44 -3 -31 8 -50 7 -73 -3 -24 -11 -1 -35 26 -28 12 3 17
1 13 -5 -11 -18 -47 -23 -47 -7 0 8 -7 14 -15 14 -8 0 -15 -4 -15 -8 0 -5 -7
-9 -15 -9 -19 0 -19 3 5 27 11 11 19 28 19 38 -1 15 -2 15 -6 -1 -3 -11 -11
-16 -19 -13 -7 3 -13 2 -12 -2 2 -13 -14 -42 -24 -42 -7 0 -6 5 1 14 9 11 6
17 -15 31 -21 13 -24 19 -13 26 16 10 8 12 -15 3 -13 -5 -12 -9 7 -24 12 -10
19 -22 15 -26 -4 -4 -14 -2 -22 5 -11 9 -15 7 -19 -9 -3 -11 -1 -20 4 -20 5 0
9 -5 9 -11 0 -5 -4 -7 -10 -4 -5 3 -10 2 -10 -4 0 -5 5 -13 10 -16 6 -3 10
-12 10 -18 0 -8 -3 -8 -9 1 -6 10 -10 8 -14 -9 -5 -20 -8 -21 -23 -8 -15 12
-17 12 -9 0 6 -11 4 -13 -8 -8 -12 5 -17 1 -17 -14 0 -12 -10 -23 -26 -29 -32
-13 -37 -12 -29 0 8 13 -1 13 -26 -1 -11 -6 -17 -15 -12 -22 4 -7 0 -7 -10 2
-14 11 -18 11 -23 -2 -3 -9 -14 -19 -25 -22 -10 -4 -18 -12 -16 -18 1 -8 -10
-11 -33 -10 -19 1 -29 0 -22 -3 6 -3 12 -10 12 -15 0 -6 -5 -7 -11 -4 -6 4
-22 -4 -37 -16 l-26 -24 24 35 c42 63 213 226 290 277 303 201 651 289 941
238z m-731 -265 c0 -5 -5 -10 -11 -10 -5 0 -7 5 -4 10 3 6 8 10 11 10 2 0 4
-4 4 -10z m65 -21 c-4 -5 -12 -9 -18 -8 -9 0 -8 2 1 6 6 2 9 10 6 15 -4 7 -2
8 5 4 6 -4 9 -12 6 -17z m35 17 c0 -3 -4 -8 -10 -11 -5 -3 -10 -1 -10 4 0 6 5
11 10 11 6 0 10 -2 10 -4z m158 -28 c-6 -16 -21 -14 -24 4 -1 11 3 15 12 11 8
-3 13 -10 12 -15z m-71 -14 c-7 -7 -37 7 -37 17 0 6 9 5 21 -1 11 -7 19 -14
16 -16z m187 -22 c3 -5 -1 -9 -9 -9 -8 0 -15 4 -15 9 0 4 4 8 9 8 6 0 12 -4
15 -8z m-554 -51 c0 -3 -11 -11 -24 -17 -22 -10 -23 -10 -14 6 10 16 38 24 38
11z m50 -21 c0 -5 -5 -10 -11 -10 -5 0 -7 5 -4 10 3 6 8 10 11 10 2 0 4 -4 4
-10z m1960 -4935 c25 -227 63 -448 114 -665 17 -72 19 -86 9 -77 -3 4 -13 1
-21 -6 -13 -9 -14 -9 -8 1 4 6 2 12 -3 12 -6 0 -11 -5 -11 -12 0 -19 -26 12
-35 41 -5 18 -4 22 5 16 9 -5 11 -4 6 4 -6 9 -11 9 -21 1 -17 -14 -26 21 -15
61 5 18 5 27 -1 24 -5 -4 -9 -5 -10 -3 -9 53 -9 118 0 118 7 0 4 11 -6 27 -11
17 -13 24 -5 19 11 -6 12 0 8 29 -4 20 -2 34 3 31 5 -3 11 1 15 9 7 18 -3 47
-14 40 -15 -9 -19 25 -5 39 19 19 20 32 1 17 -11 -9 -15 -9 -18 1 -2 6 -5 -30
-7 -82 -1 -52 -4 -96 -7 -99 -7 -8 -10 379 -5 639 l4 155 8 -120 c4 -66 13
-165 19 -220z m20 -355 c0 -5 -4 -10 -10 -10 -5 0 -10 5 -10 10 0 6 5 10 10
10 6 0 10 -4 10 -10z m-33 -207 c-3 -10 -5 -4 -5 12 0 17 2 24 5 18 2 -7 2
-21 0 -30z m53 -153 c0 -5 -4 -10 -10 -10 -5 0 -10 5 -10 10 0 6 5 10 10 10 6
0 10 -4 10 -10z m100 -50 c0 -5 -2 -10 -4 -10 -3 0 -8 5 -11 10 -3 6 -1 10 4
10 6 0 11 -4 11 -10z m114 -356 c3 -8 2 -12 -4 -9 -6 3 -10 10 -10 16 0 14 7
11 14 -7z m-7677 -26 c-2 -13 -9 -34 -14 -48 -8 -19 -7 -26 3 -28 8 -2 12 -8
9 -13 -4 -5 -2 -9 4 -9 10 0 25 -34 26 -60 1 -8 6 -14 13 -13 19 4 3 -22 -26
-40 l-27 -18 29 4 c22 4 34 -1 48 -17 13 -15 16 -16 12 -4 -6 17 18 20 33 3 5
-4 1 -5 -7 0 -8 5 -12 5 -8 0 4 -4 3 -14 -3 -22 -7 -8 -8 -13 -1 -13 9 0 24
25 26 44 1 5 6 11 13 13 7 3 10 -4 6 -19 -4 -22 -4 -22 10 -5 9 11 18 14 22 8
6 -11 43 4 57 24 5 6 8 5 8 -2 0 -7 7 -13 15 -13 19 0 19 -24 0 -44 -9 -9 -11
-17 -5 -21 5 -3 10 -12 10 -18 0 -9 -2 -9 -8 0 -6 9 -11 7 -20 -7 -10 -16 -9
-18 5 -13 18 7 -37 -80 -60 -93 -9 -6 -9 -5 0 8 7 8 9 19 5 23 -4 5 -1 5 6 1
6 -4 12 -5 12 -2 0 2 3 13 6 23 4 10 -7 3 -25 -16 -34 -38 -37 -47 -18 -55 6
-3 -1 -3 -17 -1 -16 2 -36 11 -46 20 -9 8 -23 15 -31 15 -8 -1 -3 -7 11 -15
14 -8 23 -15 20 -15 -40 -9 -80 -9 -80 0 0 6 -4 8 -10 5 -5 -3 -10 -11 -10
-16 0 -6 5 -7 10 -4 6 3 10 1 10 -6 0 -6 -8 -9 -20 -6 -11 3 -20 1 -20 -4 0
-5 8 -9 18 -9 9 0 24 -5 32 -11 12 -8 10 -9 -7 -4 -18 5 -22 2 -20 -15 1 -11
7 -18 13 -16 13 5 27 -32 18 -46 -3 -5 -16 -2 -28 6 -19 12 -23 12 -23 0 0 -8
5 -14 10 -14 5 0 3 -8 -4 -17 -10 -11 -10 -14 -1 -9 6 4 12 2 12 -3 0 -6 -5
-11 -12 -11 -6 0 -8 -3 -5 -7 4 -3 2 -12 -4 -20 -6 -7 -8 -13 -4 -13 4 0 15
10 25 23 10 12 21 19 25 16 9 -10 -229 -248 -319 -318 -44 -35 -111 -84 -150
-111 -132 -89 -233 -197 -261 -277 -20 -57 -30 -17 -17 63 15 93 51 162 151
293 110 144 248 351 331 496 71 122 240 463 240 483 0 6 2 12 5 12 3 0 4 -10
2 -22z m23 -52 c0 -11 -19 -15 -25 -6 -3 5 1 10 9 10 9 0 16 -2 16 -4z m34
-472 c3 -8 2 -12 -4 -9 -6 3 -10 10 -10 16 0 14 7 11 14 -7z m-4 -58 c0 -2 -8
-10 -17 -17 -16 -13 -17 -12 -4 4 13 16 21 21 21 13z"/>
<path d="M15738 11503 c7 -3 16 -2 19 1 4 3 -2 6 -13 5 -11 0 -14 -3 -6 -6z"/>
<path d="M16143 11462 c1 -12 6 -18 14 -15 16 6 13 25 -5 31 -6 2 -10 -6 -9
-16z"/>
<path d="M16380 11410 c0 -5 5 -10 11 -10 5 0 7 5 4 10 -3 6 -8 10 -11 10 -2
0 -4 -4 -4 -10z"/>
<path d="M17691 5997 c-8 -10 -7 -14 2 -14 8 0 14 6 14 14 0 7 -1 13 -2 13 -2
0 -8 -6 -14 -13z"/>
<path d="M17695 5740 c3 -5 8 -10 11 -10 2 0 4 5 4 10 0 6 -5 10 -11 10 -5 0
-7 -4 -4 -10z"/>
<path d="M10210 5160 c0 -5 5 -10 11 -10 5 0 7 5 4 10 -3 6 -8 10 -11 10 -2 0
-4 -4 -4 -10z"/>
<path d="M10230 5133 c1 -18 28 -44 35 -34 3 6 1 11 -4 11 -6 0 -11 7 -11 15
0 8 -4 15 -10 15 -5 0 -10 -3 -10 -7z"/>
<path d="M10165 4990 c3 -6 1 -10 -5 -10 -6 0 -8 -4 -5 -10 9 -14 22 -12 28 4
3 8 -1 17 -9 20 -9 3 -12 1 -9 -4z"/>
<path d="M10201 4984 c0 -11 3 -14 6 -6 3 7 2 16 -1 19 -3 4 -6 -2 -5 -13z"/>
<path d="M10120 4960 c-6 -11 -8 -25 -5 -30 4 -6 -1 -7 -11 -3 -13 5 -16 3
-11 -10 3 -9 2 -17 -2 -17 -16 0 -22 -32 -9 -48 11 -13 9 -14 -12 -7 -14 4
-22 4 -17 0 4 -5 0 -19 -8 -32 -9 -13 -12 -23 -8 -23 5 0 17 -16 27 -35 11
-19 23 -35 29 -35 5 0 4 7 -3 15 -7 8 -9 15 -4 15 4 0 3 5 -3 11 -12 12 -6 49
8 49 5 0 6 -7 3 -15 -4 -8 -2 -15 4 -15 5 0 13 7 16 16 4 9 13 14 22 10 8 -3
13 -2 10 2 -10 16 14 37 44 38 16 1 30 -2 30 -7 0 -12 37 -11 45 1 3 5 0 7 -8
4 -8 -3 -18 0 -22 6 -3 6 -3 10 2 9 18 -3 33 2 33 11 0 5 -6 7 -14 4 -8 -3
-14 1 -13 8 1 37 -4 47 -20 41 -10 -4 -14 -2 -10 4 17 28 -56 40 -74 12 -7
-10 -8 -6 -5 14 6 32 1 35 -14 7z m-10 -130 c0 -5 -5 -10 -11 -10 -5 0 -7 5
-4 10 3 6 8 10 11 10 2 0 4 -4 4 -10z m-40 -15 c0 -8 -4 -15 -10 -15 -5 0 -7
7 -4 15 4 8 8 15 10 15 2 0 4 -7 4 -15z"/>
<path d="M10282 4830 c0 -14 2 -19 5 -12 2 6 2 18 0 25 -3 6 -5 1 -5 -13z"/>
<path d="M10180 4810 c0 -5 5 -10 11 -10 5 0 7 5 4 10 -3 6 -8 10 -11 10 -2 0
-4 -4 -4 -10z"/>
<path d="M12308 8850 c-77 -14 -132 -77 -172 -198 -35 -109 -44 -188 -50 -422
-2 -113 -2 -187 0 -165 19 190 45 287 96 368 42 66 92 90 174 85 121 -8 159
-54 470 -571 336 -559 431 -701 563 -840 99 -103 184 -167 306 -227 138 -69
229 -91 381 -91 259 0 465 87 673 285 136 131 254 302 597 872 270 449 311
504 412 551 66 31 155 29 200 -3 64 -47 107 -190 122 -406 6 -90 7 -53 3 137
-2 143 -8 294 -13 336 -17 144 -78 254 -157 280 -53 17 -145 6 -197 -25 -103
-60 -179 -169 -591 -846 -381 -626 -441 -711 -586 -820 -321 -241 -652 -225
-966 47 -107 93 -159 170 -563 828 -395 643 -465 746 -545 795 -40 25 -108 38
-157 30z"/>
</g>
</svg>
